<?xml version="1.0" standalone="no"?><!DOCTYPE svg PUBLIC "-//W3C//DTD SVG 1.1//EN" "http://www.w3.org/Graphics/SVG/1.1/DTD/svg11.dtd"><svg class="icon" width="200px" height="116.63px" viewBox="0 0 1756 1024" version="1.1" xmlns="http://www.w3.org/2000/svg"><path d="M859.241454 123.959068H496.282169c-21.625953 0-39.238842-17.612889-39.238842-39.238842 0-21.625953 17.612889-39.238842 39.238842-39.238841h362.959285c21.625953 0 39.238842 17.612889 39.238842 39.238841 0 21.625953-17.612889 39.238842-39.238842 39.238842zM545.776617 123.959068H898.480296v78.477684H545.776617z" fill="#F3F3F3" /><path d="M551.573264 202.213804h-55.514043c-21.625953 0-39.238842-17.612889-39.238842-39.238842 0-21.625953 17.612889-39.238842 39.238842-39.238842h55.514043c21.625953 0 39.238842 17.612889 39.238841 39.238842 0 21.848901-17.389941 39.238842-39.238841 39.238842zM896.91966 202.213804h-55.514043c-21.625953 0-39.238842-17.612889-39.238841-39.238842 0-21.625953 17.612889-39.238842 39.238841-39.238842h55.514043c21.625953 0 39.238842 17.612889 39.238842 39.238842-0.222948 21.848901-17.612889 39.238842-39.238842 39.238842z" fill="#F7F9FD" /><path d="M1360.651426 280.691487h-1101.362944c-21.625953 0-39.238842-17.612889-39.238841-39.238842 0-21.625953 17.612889-39.238842 39.238841-39.238841h1101.139996c21.625953 0 39.238842 17.612889 39.238842 39.238841 0.222948 21.848901-17.389941 39.238842-39.015894 39.238842zM370.762465 280.691487h1028.904855v78.477683H370.762465z" fill="#F3F3F3" /><path d="M1354.408883 359.16917H1475.915524c21.625953 0 39.238842-17.612889 39.238841-39.238841 0-21.625953-17.612889-39.238842-39.238841-39.238842h-121.506641c-21.625953 0-39.238842 17.612889-39.238842 39.238842 0 21.625953 17.612889 39.238842 39.238842 39.238841zM374.329632 359.16917h-115.04115c-21.625953 0-39.238842-17.612889-39.238841-39.238841 0-21.625953 17.612889-39.238842 39.238841-39.238842h115.04115c21.625953 0 39.238842 17.612889 39.238842 39.238842 0 21.625953-17.612889 39.238842-39.238842 39.238841z" fill="#F7F9FD" /><path d="M1486.394078 437.646854H333.084259c-21.625953 0-39.238842-17.612889-39.238842-39.238842 0-21.625953 17.612889-39.238842 39.238842-39.238842h1153.309819c21.625953 0 39.238842 17.612889 39.238842 39.238842 0 21.625953-17.612889 39.238842-39.238842 39.238842zM333.753103 437.646854h593.264533v78.477683H333.753103z" fill="#F3F3F3" /><path d="M370.316569 516.124537h-80.930111c-21.625953 0-39.238842-17.612889-39.238842-39.238841 0-21.625953 17.612889-39.238842 39.238842-39.238842h80.930111c21.625953 0 39.238842 17.612889 39.238841 39.238842-0.222948 21.625953-17.612889 39.238842-39.238841 39.238841z" fill="#F7F9FD" /><path d="M966.256477 516.124537h-80.930111c-21.625953 0-39.238842-17.612889-39.238842-39.238841 0-21.625953 17.612889-39.238842 39.238842-39.238842h80.930111c21.625953 0 39.238842 17.612889 39.238842 39.238842 0 21.625953-17.389941 39.238842-39.238842 39.238841z" fill="#FFFFFF" /><path d="M1142.831265 594.602221h-1103.592423c-21.625953 0-39.238842-17.612889-39.238842-39.238842 0-21.625953 17.612889-39.238842 39.238842-39.238842h1103.592423c21.625953 0 39.238842 17.612889 39.238842 39.238842 0 21.625953-17.389941 39.238842-39.238842 39.238842zM391.942521 594.602221h787.229262v78.477683H391.942521z" fill="#F3F3F3" /><path d="M409.109514 672.856956H113.92641c-21.625953 0-39.238842-17.612889-39.238842-39.238841 0-21.625953 17.612889-39.238842 39.238842-39.238842h295.183104c21.625953 0 39.238842 17.612889 39.238842 39.238842 0 21.848901-17.612889 39.238842-39.238842 39.238841z" fill="#F7F9FD" /><path d="M855.897235 672.856956H584.569562c-21.625953 0-39.238842-17.612889-39.238841-39.238841 0-21.625953 17.612889-39.238842 39.238841-39.238842h271.327673c21.625953 0 39.238842 17.612889 39.238842 39.238842 0 21.848901-17.612889 39.238842-39.238842 39.238841z" fill="#FFFFFF" /><path d="M1405.018071 672.856956H1133.690398c-21.625953 0-39.238842-17.612889-39.238841-39.238841 0-21.625953 17.612889-39.238842 39.238841-39.238842h271.327673c21.625953 0 39.238842 17.612889 39.238842 39.238842-0.222948 21.848901-17.612889 39.238842-39.238842 39.238841z" fill="#F7F9FD" /><path d="M1486.617026 751.33464H392.165469c-21.625953 0-39.238842-17.612889-39.238842-39.238842 0-21.625953 17.612889-39.238842 39.238842-39.238842h1094.451557c21.625953 0 39.238842 17.612889 39.238842 39.238842-0.222948 21.848901-17.612889 39.238842-39.238842 39.238842zM1717.145221 594.602221H1380.270847c-21.625953 0-39.238842-17.612889-39.238842-39.238842 0-21.625953 17.612889-39.238842 39.238842-39.238842h336.874374c21.625953 0 39.238842 17.612889 39.238842 39.238842 0 21.625953-17.612889 39.238842-39.238842 39.238842z" fill="#F3F3F3" /><path d="M613.106902 655.689963h-45.258437c-2.006532 0-3.790115 1.783584-3.790115 3.790115v13.376878c0 2.006532 1.783584 3.790115 3.790115 3.790116H613.106902c2.006532 0 3.790115-1.783584 3.790115-3.790116v-13.376878c0-2.006532-1.783584-3.790115-3.790115-3.790115z" fill="#FFFFFF" /><path d="M613.106902 680.214239h-45.258437c-4.013063 0-7.580231-3.344219-7.580231-7.580231v-13.376878c0-4.013063 3.344219-7.580231 7.580231-7.58023H613.106902c4.013063 0 7.580231 3.344219 7.580231 7.58023v13.376878c0 4.236011-3.344219 7.580231-7.580231 7.580231z m-45.258437-20.734161v13.376878H613.106902v-13.376878h-45.258437z" fill="#999999" /><path d="M609.093838 379.680383h-35.00283c-2.006532 0-3.790115 1.783584-3.790115 3.790116v272.442412h42.583061V383.470499c0-2.22948-1.783584-3.790115-3.790116-3.790116z" fill="#FFFFFF" /><path d="M616.451121 659.480078h-49.940344V383.470499c0-4.013063 3.344219-7.580231 7.580231-7.580231h35.00283c4.013063 0 7.580231 3.344219 7.580231 7.580231v276.009579z m-42.360113-7.357282h35.00283V383.470499h-35.00283v268.652297z" fill="#999999" /><path d="M897.588504 655.689963h-45.258437c-2.006532 0-3.790115 1.783584-3.790115 3.790115v13.376878c0 2.006532 1.783584 3.790115 3.790115 3.790116h45.258437c2.006532 0 3.790115-1.783584 3.790116-3.790116v-13.376878c0-2.006532-1.783584-3.790115-3.790116-3.790115z" fill="#FFFFFF" /><path d="M897.588504 680.214239h-45.258437c-4.013063 0-7.580231-3.344219-7.58023-7.580231v-13.376878c0-4.013063 3.344219-7.580231 7.58023-7.58023h45.258437c4.013063 0 7.580231 3.344219 7.580231 7.58023v13.376878c0 4.236011-3.344219 7.580231-7.580231 7.580231z m-45.258437-20.734161v13.376878h45.258437v-13.376878h-45.258437z" fill="#999999" /><path d="M893.575441 379.680383h-35.002831c-2.006532 0-3.790115 1.783584-3.790115 3.790116v272.442412h42.583061V383.470499c0-2.22948-1.783584-3.790115-3.790115-3.790116z" fill="#FFFFFF" /><path d="M900.932724 659.480078h-49.940344V383.470499c0-4.013063 3.344219-7.580231 7.58023-7.580231h35.002831c4.013063 0 7.580231 3.344219 7.580231 7.580231v276.009579z m-42.360114-7.357282h35.002831V383.470499h-35.002831v268.652297z" fill="#999999" /><path d="M1092.445025 7.357283h-124.85086l-88.287394 88.287394v124.85086l88.287394 88.510342h124.85086l88.510342-88.510342v-124.85086z" fill="#FFFFFF" /><path d="M1094.005661 312.795994h-127.972132l-1.11474-1.11474-89.402133-89.402134V94.084041l1.11474-1.11474 89.402133-89.402134h127.972132l1.11474 1.11474 89.402133 89.402134v127.972131l-1.11474 1.11474-89.402133 89.625082z m-124.85086-7.580231h121.952536L1177.165251 219.157849V97.205312L1091.107337 10.92445h-121.952536L882.873939 97.205312v121.952537l86.280862 86.057914z" fill="#999999" /><path d="M1082.189419 32.327455h-104.339648l-73.572828 73.572828v104.339647l73.572828 73.795777h104.339648l73.572828-73.795777V105.900283z" fill="#FFFFFF" /><path d="M1083.750054 287.602874H976.512084l-75.802308-75.802308V104.562595l75.802308-75.802308h107.23797l75.802308 75.802308V211.800566l-75.802308 75.802308z m-104.339647-7.357283h101.218376l71.566296-71.566296V107.460919l-71.566296-71.566297h-101.218376l-71.566296 71.566297v101.218376l71.566296 71.566296z" fill="#999999" /><path d="M995.462661 183.709123h-8.694971v15.383409h-13.376878v-15.383409h-31.212715v-9.363815L972.053124 128.418027h14.714566v44.812541h8.694971v10.478555z m-22.071849-10.701503V149.821032c0-2.006532 0-4.236011 0.222948-6.911387h-0.222948c-0.222948 0.668844-0.445896 1.337688-0.891792 2.22948s-0.891792 2.006532-1.783583 3.344219l-15.829306 24.524276h18.504681zM1001.705204 164.758546c0-12.262138 2.22948-21.625953 6.688438-28.091444 4.458959-6.465491 10.92445-9.586762 19.619421-9.586762 16.275201 0 24.524276 12.03919 24.524276 36.11757 0 11.816242-2.22948 20.957109-6.688438 27.422599-4.458959 6.465491-10.701502 9.586762-19.173525 9.586763-16.498149 0-24.970172-11.816242-24.970172-35.448726z m14.937513-0.222948c0 16.275201 3.567167 24.524276 10.478555 24.524276s10.255606-8.472023 10.255606-25.19312c0-16.944045-3.344219-25.416068-10.032659-25.416068-7.134335 0-10.701502 8.694971-10.701502 26.084912zM1063.238842 183.709123c4.681907 3.567167 10.255606 5.350751 16.498149 5.350751 4.013063 0 7.134335-0.891792 9.586763-2.675376s3.567167-4.236011 3.567167-7.580231-1.337688-6.019595-4.236011-7.58023c-2.898324-1.783584-6.688439-2.675376-11.816242-2.675376h-6.242543v-11.370346h5.796647c9.586762 0 14.26867-3.121272 14.268669-9.586763 0-6.019595-3.567167-9.140867-10.92445-9.140866-4.681907 0-9.363815 1.560636-13.822774 4.681907v-12.262138c4.904855-2.452428 10.701502-3.790115 17.166994-3.790115 6.688439 0 12.03919 1.560636 16.275201 4.681907 4.236011 3.121272 6.242543 7.357283 6.242543 12.930982 0 9.363815-4.681907 15.160462-14.045722 17.389941v0.222948c4.904855 0.445896 8.917919 2.452428 11.816242 5.350751 2.898324 3.121272 4.458959 6.688439 4.45896 11.147398 0 6.688439-2.452428 12.03919-7.357283 15.829306-4.904855 3.790115-11.593294 5.573699-19.619421 5.573699-7.357283 0-13.15393-1.11474-17.612889-3.567167v-12.930982z" fill="#999999" /><path d="M1008.839538 309.005879h42.583062v350.028303h-42.583062z" fill="#FFFFFF" /><path d="M1054.989767 662.824298h-50.163292V305.215763h50.163292v357.608535z m-42.583061-7.357283h35.225778V312.795994h-35.225778V655.467015z" fill="#999999" /><path d="M1056.327455 659.034182h-52.61572v16.944046c0 2.006532 1.783584 3.790115 3.790116 3.790115h45.258436c2.006532 0 3.790115-1.783584 3.790116-3.790115v-16.944046z" fill="#FFFFFF" /><path d="M1052.760287 683.558459h-45.258436c-4.013063 0-7.580231-3.344219-7.580231-7.580231V655.467015h60.19595v20.734161c0 4.013063-3.344219 7.357283-7.357283 7.357283z m-45.258436-20.734161v13.376878h45.258436v-13.376878h-45.258436z" fill="#999999" /><path d="M535.52101 397.962116h393.057261v72.235141H535.52101z" fill="#FFFFFF" /><path d="M932.145439 473.764424H531.730895v-79.815371h400.414544v79.815371z m-393.057261-7.357283h385.47703v-64.654909H539.088178v64.654909z" fill="#999999" /><path d="M624.031352 397.962116l-65.769649 71.343349" fill="#FFFFFF" /><path d="M555.528361 466.714809l65.934631-71.425839 5.56924 5.14118-65.934631 71.42584z" fill="#999999" /><path d="M718.338341 397.962116l-65.992597 71.343349" fill="#FFFFFF" /><path d="M649.625778 466.746022l65.936861-71.428069 5.56924 5.14341-65.934631 71.425839z" fill="#999999" /><path d="M803.058567 397.962116l-65.992597 71.343349" fill="#FFFFFF" /><path d="M734.348234 466.741563l65.934631-71.425839 5.56924 5.14118-65.934631 71.428069z" fill="#999999" /><path d="M897.142608 397.962116l-65.992597 71.343349" fill="#FFFFFF" /><path d="M828.447882 466.775005l65.934631-71.425839 5.56924 5.14118-65.932402 71.425839zM281.137383 984.315262c2.898324-1.337688 6.019595-2.675376 9.363814-4.236011v-16.498149h-8.69497V958.676246h8.69497v-14.268669h5.350752v14.268669h8.249074v5.127804h-8.249074v13.822773c2.22948-1.11474 4.681907-2.452428 7.357282-3.790115 0.222948 2.452428 0.445896 4.458959 0.668844 5.796647-2.452428 1.337688-5.127803 2.675376-7.803178 4.013063v24.301329c0 5.127803-2.452428 7.580231-7.134335 7.803178H283.143915c-0.222948-2.006532-0.445896-4.013063-0.891792-6.019595 2.22948 0.222948 4.236011 0.222948 5.573699 0.222948 2.006532 0 2.898324-0.891792 2.898323-2.675375v-20.734161c-2.675376 1.337688-5.573699 2.898324-8.69497 4.458959l-0.891792-6.688439z m26.976704 2.898324v-5.127803h38.34705v5.127803c-3.121272 6.688439-7.580231 12.262138-13.376878 16.944045 5.796647 3.344219 12.930982 5.573699 21.403004 6.465491-1.560636 2.22948-2.898324 4.013063-4.236011 6.019595-8.917919-1.783584-16.275201-4.681907-22.294797-8.917918-6.688439 4.236011-14.937514 7.357283-24.747224 9.363814-0.891792-1.560636-2.22948-3.344219-3.567167-5.350751 9.363815-1.560636 17.389941-4.013063 23.632484-7.580231-4.904855-4.458959-8.472023-10.032658-10.92445-16.721097h-4.236011z m-2.675376-18.727629h31.212715c2.675376-4.458959 4.904855-9.140867 7.134335-13.822774l5.573699 2.452428c-2.22948 3.790115-4.458959 7.803179-6.911387 11.370346h9.586763v11.147398h-5.573699v-6.242543h-35.671675v6.242543H305.438711v-11.147398z m1.560636-13.376878c-0.222948-1.783584-0.668844-3.567167-1.11474-5.350751 16.498149-0.445896 31.212715-1.337688 44.812541-2.675376l1.11474 5.350751c-15.38341 1.11474-30.320923 2.006532-44.812541 2.675376z m2.006532 3.121272l4.458959-2.22948c2.006532 3.121272 4.013063 6.242543 5.796647 9.586762l-4.904855 2.452428c-1.560636-3.567167-3.344219-6.688439-5.350751-9.80971z m30.989767 28.983235h-21.625953c2.22948 5.573699 5.796647 10.032658 10.032658 13.599826 5.127803-3.790115 8.917919-8.249075 11.593295-13.599826z m-16.49815-30.320923l4.681907-2.006532c2.006532 3.567167 3.790115 6.911387 5.350752 10.032658l-4.904856 2.22948c-1.783584-3.567167-3.344219-7.134335-5.127803-10.255606z" fill="#999999" /><path d="M355.824951 990.780753c4.904855-7.580231 8.694971-16.052253 11.147398-25.416068h-10.478554v-5.127803h11.370346v-15.383409h5.573699v15.383409h10.255607v5.127803h-10.255607v9.586763l3.121272-2.898324c4.458959 4.236011 7.803179 7.803179 10.478554 10.924451l-4.458959 4.013063c-3.344219-4.236011-6.465491-7.803179-9.363815-10.92445v40.130633H367.864141V976.512084c-2.675376 8.249075-5.796647 15.160462-9.586762 20.73416-0.668844-2.006532-1.560636-4.236011-2.452428-6.465491z m26.30786-35.671674v-5.573699H423.601132v5.350751c-2.22948 16.944045-7.357283 30.543871-15.383409 41.022425 5.350751 5.350751 12.262138 9.586762 20.957108 13.15393-2.006532 2.22948-3.790115 4.236011-4.904855 6.019595-8.472023-4.236011-14.937514-9.140867-20.065317-14.491617-5.573699 5.796647-13.376878 11.147398-23.186588 16.275201-1.11474-1.783584-2.452428-3.567167-4.013063-5.573699 10.255606-4.904855 18.058785-10.032658 23.409536-15.38341-7.357283-9.140867-11.816242-22.96364-13.599826-40.799477h-4.681907z m35.448726 0h-24.970172c1.560636 15.606358 5.350751 27.868496 11.816242 36.340518 6.688439-9.140867 10.92445-21.180057 13.15393-36.340518z" fill="#999999" /><path d="M430.958415 1011.069018c18.058785-6.019595 28.760287-14.937514 32.327455-26.530808h-31.435663v-5.573699h32.550403c0.222948-3.344219 0.445896-8.249075 0.668844-14.714565H445.895929c-2.22948 4.013063-4.681907 7.803179-7.357283 11.370346-1.11474-1.11474-2.675376-2.22948-4.681907-3.567168 5.796647-7.134335 10.032658-15.38341 12.930981-24.747224l5.796648 1.783584c-1.11474 3.344219-2.22948 6.465491-3.790116 9.586762h16.498149v-14.268669h6.242543c0 5.127803-0.222948 10.032658-0.222947 14.268669h27.199651v5.5737h-27.422599c-0.222948 6.019595-0.222948 10.92445-0.445896 14.714565h31.881559v5.573699h-31.435663c4.681907 12.262138 15.38341 20.511213 32.327454 24.970172-1.560636 2.006532-3.121272 4.013063-4.458959 6.019595-16.275201-5.796647-26.753756-14.714566-31.435663-26.530807-3.790115 11.147398-14.491618 20.288265-32.327455 27.645547-0.891792-1.337688-2.22948-3.121272-4.236011-5.573699z" fill="#999999" /><path d="M520.583497 959.568038h5.350751v15.606358c0 8.026127-0.445896 14.491618-1.560636 19.396473l2.22948-2.006532c4.681907 4.681907 8.694971 9.140867 11.816242 12.930982l-4.681907 3.567167c-3.344219-4.458959-6.688439-8.472023-10.032659-12.03919-1.783584 6.911387-6.465491 13.376878-14.045722 18.950577-1.11474-1.560636-2.452428-3.121272-4.013063-4.904855 6.019595-3.790115 10.032658-8.026127 12.03919-12.708034 2.006532-4.458959 2.898324-11.593294 2.898324-21.180057v-17.612889z m-11.370347-11.370346H537.304594v45.704333h-5.350751v-40.57653h-17.612889V994.347921h-5.350752v-46.150229z m28.314392 24.301328c4.904855-9.140867 8.472023-18.504681 10.92445-28.091443l5.573699 1.783583c-1.337688 4.013063-2.675376 7.803179-4.013063 11.370347h26.976704v5.350751h-7.134335c-0.668844 16.275201-4.013063 28.314391-9.809711 36.11757 4.013063 4.904855 10.255606 8.694971 18.281733 11.370346-1.11474 1.560636-2.452428 3.344219-4.236011 6.019595-7.580231-3.567167-13.599826-7.803179-17.835837-12.708034-4.236011 4.458959-10.478554 8.917919-18.727629 13.599826-1.11474-1.783584-2.22948-3.344219-3.790115-4.904855 8.249075-4.013063 14.714566-8.472023 19.173524-13.376878-4.236011-6.911387-6.911387-16.721097-8.026126-29.206183-1.337688 2.898324-2.675376 5.796647-4.236012 8.472022-0.891792-2.675376-2.006532-4.458959-3.121271-5.796647z m19.173525 21.403005c4.458959-6.911387 6.911387-17.389941 7.580231-31.212715h-14.937514c0.891792 13.822774 3.344219 24.07838 7.357283 31.212715z" fill="#999999" /><path d="M620.464185 997.469192l-6.242543 19.396473h-5.127804l4.45896-19.396473h6.911387z" fill="#999999" /><path d="M671.073373 943.738733l5.350751 2.452427c-2.006532 3.344219-4.013063 6.465491-6.019595 9.586763v32.550403h-5.573699v-24.747224c-2.006532 2.675376-4.013063 5.350751-6.242543 7.803178-1.11474-1.337688-2.452428-2.898324-4.013064-4.458959 6.688439-6.688439 12.03919-14.491618 16.49815-23.186588z m-8.026127 48.15676l5.350751 1.783584c-2.22948 6.465491-4.681907 12.262138-7.134335 17.166993-1.560636-0.668844-3.344219-1.337688-5.350751-2.22948 3.121272-5.350751 5.573699-11.147398 7.134335-16.721097z m9.586762 0.445896h5.573699v12.03919c0 3.121272 1.560636 4.681907 4.904856 4.681907h15.829305c3.567167 0 5.796647-1.337688 6.242543-4.236011 0.668844-2.452428 1.11474-5.127803 1.560636-8.472023 1.783584 0.668844 3.567167 1.337688 5.573699 2.006532-0.668844 3.567167-1.11474 6.242543-1.783584 8.249075-1.11474 4.904855-4.681907 7.357283-10.478554 7.357283h-17.835837c-6.242543 0-9.363815-3.121272-9.363815-9.140867v-12.485086z m16.052254-24.970172l4.458959 3.34422c-4.236011 4.681907-8.917919 9.80971-14.26867 14.714565-1.11474-1.11474-2.452428-2.452428-4.013063-3.790115 4.681907-4.236011 9.363815-9.140867 13.822774-14.26867z m-13.822774-1.783584c5.796647-6.242543 10.478554-13.15393 14.045722-21.180056l5.796647 1.337688c-1.11474 2.22948-2.22948 4.458959-3.34422 6.46549H724.580884v4.681908l-5.127803 10.478554c-1.783584-0.891792-3.567167-1.783584-5.127803-2.452428l3.790115-7.803178h-29.652079c-2.675376 4.458959-5.573699 8.249075-8.917919 11.816242-1.337688-0.891792-2.898324-2.006532-4.681907-3.34422zM684.45025 992.118441l3.790116-3.567167c4.013063 3.121272 7.803179 6.465491 11.370346 10.032658l-4.236011 4.013063c-3.567167-3.567167-7.134335-7.134335-10.924451-10.478554z m15.160462-30.543871h5.573699v17.612889c0 5.796647-2.898324 8.694971-8.472023 8.694971h-7.357282c-0.222948-1.560636-0.668844-3.567167-1.11474-6.019595 2.675376 0.445896 4.904855 0.445896 6.911387 0.445896 3.121272 0 4.458959-1.560636 4.458959-4.904856v-15.829305z m8.917919 10.92445l3.790115-3.790115c4.904855 3.790115 9.80971 7.803179 14.714566 12.485086l-4.013064 4.458959c-4.904855-4.904855-9.80971-9.363815-14.491617-13.15393z m2.898323 20.065317l4.458959-3.121271c4.681907 5.127803 8.694971 10.032658 12.262138 14.937513l-4.681907 3.567168c-4.013063-5.573699-8.026127-10.701502-12.03919-15.38341z" fill="#999999" /><path d="M802.612671 1005.049423c-1.337688 1.560636-2.675376 3.344219-4.013063 5.350751-12.930982-6.465491-22.740692-14.714566-29.652079-24.747224v30.543871h-5.796647v-30.543871c-7.357283 9.80971-17.166993 18.281733-29.652079 25.639016-0.891792-1.337688-2.22948-2.898324-4.013064-4.904855 13.15393-6.911387 23.632484-15.38341 31.212715-24.970172h-30.097975v-5.350751h32.327455v-13.822774h-28.091444v-5.350751h28.091444v-12.485086h5.796647v12.485086h28.314391v5.350751h-28.314391v13.822774h32.327455v5.350751h-30.320923c8.026127 10.478554 18.504681 18.281733 31.881558 23.632484z" fill="#999999" /><path d="M804.842151 964.026998V958.676246h23.855432v5.5737c-2.675376 4.681907-5.573699 9.140867-8.917918 13.376877v1.783584c0.891792 0.891792 2.006532 2.006532 2.675375 2.898324 2.22948-2.675376 4.236011-4.904855 5.796647-6.911387l3.790116 3.121271c-1.783584 2.006532-3.790115 4.458959-6.465491 6.911387 2.006532 2.006532 3.567167 3.790115 4.904855 5.573699l-3.567167 3.790116c-2.006532-2.675376-4.458959-5.573699-7.134335-8.694971v29.875027h-5.127803v-32.327455c-2.675376 2.898324-5.350751 5.573699-8.249075 8.472023-0.445896-2.006532-1.11474-4.013063-2.006532-6.242543 8.026127-6.688439 13.822774-13.822774 18.058785-21.625952H804.842151z m7.134335-17.389942l4.904855-2.452427c2.22948 3.344219 4.013063 6.688439 5.796647 10.255606l-5.350751 2.675376c-1.337688-3.344219-3.121272-6.688439-5.350751-10.478555z m21.8489 8.694971h18.950577v-10.701502h5.350752v10.701502h17.389941v4.681907c-0.891792 3.344219-2.22948 6.688439-3.790116 9.809711-1.560636-0.668844-3.121272-1.337688-4.904855-2.006532 1.337688-2.452428 2.22948-5.127803 3.121272-7.580231h-11.816242v14.26867h13.153929v4.458959c-2.452428 9.140867-6.019595 16.721097-11.147398 22.740693 4.013063 3.567167 9.80971 6.688439 17.166993 9.140866-1.560636 1.783584-2.898324 3.567167-4.236011 5.573699-6.911387-3.121272-12.708034-6.688439-16.944045-10.701502-4.904855 4.458959-10.701502 8.026127-17.612889 10.92445-1.11474-1.560636-2.22948-3.344219-3.567168-4.904855 7.357283-2.898324 13.376878-6.242543 17.612889-10.032658-4.904855-5.573699-8.249075-12.930982-9.80971-22.294797h-3.567167v3.790116c0 14.045722-3.790115 25.19312-11.147399 33.219246-1.11474-1.783584-2.452428-3.121272-3.790115-4.458959 6.465491-7.580231 9.80971-16.944045 9.80971-28.760287v-27.868496z m5.127804 19.173525h13.822773v-14.26867h-13.822773v14.26867z m26.530807 4.681907h-17.835837c1.560636 7.357283 4.458959 13.376878 8.694971 18.504681 3.790115-4.904855 6.911387-11.147398 9.140866-18.504681z" fill="#999999" /><path d="M879.083823 984.315262c2.898324-1.337688 6.019595-2.675376 9.363815-4.236011v-16.498149h-8.694971V958.676246h8.694971v-14.268669h5.350751v14.268669h8.249075v5.127804h-8.249075v13.822773c2.22948-1.11474 4.681907-2.452428 7.357283-3.790115 0.222948 2.452428 0.445896 4.458959 0.668844 5.796647-2.452428 1.337688-5.127803 2.675376-7.803179 4.013063v24.301329c0 5.127803-2.452428 7.580231-7.134335 7.803178h-5.796647c-0.222948-2.006532-0.445896-4.013063-0.891792-6.019595 2.22948 0.222948 4.236011 0.222948 5.573699 0.222948 2.006532 0 2.898324-0.891792 2.898324-2.675375v-20.734161c-2.675376 1.337688-5.573699 2.898324-8.694971 4.458959l-0.891792-6.688439z m26.976704 2.898324v-5.127803h38.34705v5.127803c-3.121272 6.688439-7.580231 12.262138-13.376878 16.944045 5.796647 3.344219 12.930982 5.573699 21.403004 6.465491-1.560636 2.22948-2.898324 4.013063-4.236011 6.019595-8.917919-1.783584-16.275201-4.681907-22.294796-8.917918-6.688439 4.236011-14.937514 7.357283-24.747224 9.363814-0.891792-1.560636-2.22948-3.344219-3.567168-5.350751 9.363815-1.560636 17.389941-4.013063 23.632484-7.580231-4.904855-4.458959-8.472023-10.032658-10.92445-16.721097h-4.236011z m-2.898324-18.727629h31.435663c2.675376-4.458959 4.904855-9.140867 7.134335-13.822774l5.573699 2.452428c-2.22948 3.790115-4.458959 7.803179-6.911387 11.370346h9.586763v11.147398h-5.573699v-6.242543h-35.671675v6.242543h-5.573699v-11.147398z m1.560636-13.376878c-0.222948-1.783584-0.668844-3.567167-1.11474-5.350751 16.498149-0.445896 31.212715-1.337688 44.812541-2.675376l1.11474 5.350751c-15.160462 1.11474-30.097975 2.006532-44.812541 2.675376z m2.22948 3.121272l4.458959-2.22948c2.006532 3.121272 4.013063 6.242543 5.796647 9.586762l-4.904855 2.452428c-1.560636-3.567167-3.344219-6.688439-5.350751-9.80971z m30.766819 28.983235h-21.625953c2.22948 5.573699 5.796647 10.032658 10.032659 13.599826 5.127803-3.790115 9.140867-8.249075 11.593294-13.599826z m-16.275202-30.320923l4.681908-2.006532c2.006532 3.567167 3.790115 6.911387 5.350751 10.032658l-4.904855 2.22948c-1.783584-3.567167-3.344219-7.134335-5.127804-10.255606z" fill="#999999" /><path d="M953.548443 990.780753c4.904855-7.580231 8.694971-16.052253 11.147398-25.416068H954.217287v-5.127803h11.370346v-15.383409h5.573699v15.383409h10.255607v5.127803h-10.255607v9.586763l3.121272-2.898324c4.458959 4.236011 7.803179 7.803179 10.478554 10.924451l-4.458959 4.013063c-3.344219-4.236011-6.465491-7.803179-9.363815-10.92445v40.130633H965.364685V976.512084c-2.675376 8.249075-5.796647 15.160462-9.586762 20.73416-0.445896-2.006532-1.11474-4.236011-2.22948-6.465491z m26.530808-35.671674v-5.573699h41.468321v5.350751c-2.22948 16.944045-7.357283 30.543871-15.383409 41.022425 5.350751 5.350751 12.262138 9.586762 20.957109 13.15393-2.006532 2.22948-3.790115 4.236011-4.904856 6.019595-8.472023-4.236011-14.937514-9.140867-20.065317-14.491617-5.573699 5.796647-13.376878 11.147398-23.186588 16.275201-1.11474-1.783584-2.452428-3.567167-4.013063-5.573699 10.255606-4.904855 18.058785-10.032658 23.409536-15.38341-7.357283-9.140867-11.816242-22.96364-13.599826-40.799477h-4.681907z m35.225778 0h-24.970172c1.560636 15.606358 5.350751 27.868496 11.816242 36.340518 6.688439-9.140867 11.147398-21.180057 13.15393-36.340518z" fill="#999999" /><path d="M1054.766819 990.557805c0.222948 2.22948 0.445896 4.458959 0.668844 6.465491-3.567167 2.452428-7.580231 5.573699-11.816242 9.140867-0.891792 0.668844-2.22948 2.006532-3.567168 3.344219l-4.013063-4.458959c1.783584-1.783584 2.675376-4.236011 2.675376-7.134335v-23.409536h-9.363815v-5.350751h14.937514v29.429131c3.567167-2.452428 7.134335-5.127803 10.478554-8.026127z m-18.058785-45.035488c4.013063 4.013063 7.803179 7.803179 11.147398 11.816242l-5.127803 4.236011c-3.121272-4.236011-6.688439-8.249075-10.478554-12.262138l4.458959-3.790115z m15.38341 11.593294h23.632484c-1.560636-3.344219-3.344219-6.911387-5.573699-10.478555l5.127803-2.452427c2.22948 3.567167 4.236011 6.911387 5.796647 10.032658l-5.350751 2.675376h25.19312v5.350751h-32.550403v11.370346h27.4226c-0.445896 14.714566-1.11474 24.747224-1.560636 30.543871-0.668844 6.688439-4.013063 10.032658-10.255607 10.032659-3.567167 0-7.580231 0-11.816242-0.222948-0.445896-2.22948-0.668844-4.458959-1.11474-6.465491 4.458959 0.445896 8.472023 0.891792 12.262139 0.891791 3.121272 0 4.904855-1.783584 5.350751-5.573699 0.445896-5.796647 0.891792-13.599826 1.337687-23.855432h-21.625952c-0.222948 8.249075-1.11474 14.714566-2.898324 19.619421-2.006532 6.242543-6.019595 12.262138-12.03919 18.281733-1.560636-1.783584-3.121272-3.344219-4.681907-4.236011 5.573699-5.573699 9.363815-11.147398 11.147398-16.721098 1.560636-4.458959 2.452428-11.593294 2.452428-20.957108v-12.262138h-10.478554v-5.573699z" fill="#999999" /><path d="M1107.382539 958.899194h5.796647v57.297627h-5.796647v-57.297627z m3.567167-10.701502l4.236011-3.790115c2.675376 2.452428 6.242543 6.019595 10.478555 10.701502l-4.681908 4.236011c-4.013063-4.904855-7.357283-8.694971-10.032658-11.147398z m13.15393 19.173525h30.989767V996.5774h-25.639016v4.236012h-5.350751v-33.442195z m25.639016 5.350751h-20.511213v18.504681h20.511213v-18.504681z m-19.396473-18.058785v-5.573699h41.691269V1005.495319c0 7.134335-3.121272 10.478554-9.586762 10.478554-4.236011 0-8.026127 0-12.03919-0.222948-0.222948-1.560636-0.668844-3.344219-1.11474-6.019595 4.013063 0.222948 8.026127 0.445896 11.593294 0.445896s5.350751-2.006532 5.350751-5.796647V954.217287H1130.346179z" fill="#999999" /><path d="M1178.279991 1006.387111c2.22948-0.445896 4.236011-0.891792 6.465491-1.11474V958.676246h5.796647v45.481385c3.344219-0.668844 6.465491-1.337688 9.586763-2.006532V945.299369h5.796647v21.625952h13.15393v5.573699h-13.15393V1001.03636c4.236011-0.891792 8.472023-1.783584 12.262138-2.675376 0.222948 2.452428 0.222948 4.458959 0.445896 6.019595-13.15393 2.675376-26.084912 5.350751-38.569998 8.249075l-1.783584-6.242543z m42.806009-61.979534h5.796648v25.639016c6.242543-4.013063 12.262138-8.472023 18.058785-13.599826l4.236011 4.681907c-6.688439 5.350751-14.045722 10.701502-22.294796 15.606358v25.861963c0 3.121272 1.560636 4.904855 4.458959 4.904856h6.911387c2.675376 0 4.458959-1.337688 4.904855-4.236012 0.668844-3.567167 1.11474-7.580231 1.337688-12.262138 2.006532 0.891792 4.013063 1.560636 6.019595 2.22948-0.445896 4.681907-0.891792 8.917919-1.560636 12.262138-0.891792 5.127803-4.013063 7.580231-9.586762 7.580231h-9.586763c-5.796647 0-8.917919-3.121272-8.917919-9.586763v-59.08121z" fill="#999999" /><path d="M1252.967559 1011.291966c12.485086-2.675376 20.957109-6.019595 25.639016-10.032658 5.350751-4.458959 8.026127-11.147398 8.026127-20.288265v-8.249075h6.019595v8.472023c0 4.904855-0.668844 9.363815-2.006532 13.15393 12.262138 5.350751 23.409536 10.92445 33.442195 16.498149l-3.790115 5.573699c-9.363815-5.796647-20.065317-11.370346-31.881559-17.166993-1.783584 2.898324-4.013063 5.573699-6.688439 7.580231-5.796647 4.236011-14.045722 7.803179-24.970172 10.255606-0.891792-1.560636-2.006532-3.567167-3.790116-5.796647z m9.586763-47.933812h20.73416c0.668844-2.452428 1.337688-5.796647 2.22948-9.809711h-31.212715v-5.350751H1324.310908v5.350751h-32.327455c-1.11474 3.790115-2.006532 7.134335-2.898323 9.809711h27.422599v34.779882h-6.019595v-29.429131H1268.573917v29.652079h-6.019595v-35.00283z" fill="#999999" /><path d="M1332.559983 963.80405h23.186588c1.337688-3.790115 2.452428-6.911387 3.344219-9.586763H1328.769867v-5.350751h70.228609v5.350751h-33.219247c-1.11474 2.675376-2.452428 5.796647-4.013063 9.586763h33.219247v52.169823h-5.5737v-4.013063h-51.055083v4.236011h-5.573699v-52.392771z m5.796647 43.251905h11.816242v-38.569998h-11.816242v38.569998z m16.944045-28.760288h16.944045v-9.80971h-16.944045v9.80971z m0 14.491618h16.944045v-9.80971h-16.944045v9.80971z m0 14.26867h16.944045v-9.809711h-16.944045v9.809711z m33.888091-38.34705h-11.816243v38.569998h11.816243v-38.569998z" fill="#999999" /><path d="M1438.683214 998.138036c1.337688 0 2.452428 0.445896 3.344219 1.337688 0.891792 0.891792 1.337688 2.006532 1.337688 3.344219s-0.445896 2.452428-1.337688 3.34422c-0.891792 0.891792-2.006532 1.337688-3.344219 1.337688s-2.452428-0.445896-3.34422-1.337688-1.337688-2.006532-1.337688-3.34422 0.445896-2.452428 1.337688-3.344219 2.006532-1.337688 3.34422-1.337688z m3.567167-48.15676l-0.891792 40.353581H1435.78489l-0.891792-40.353581h7.357283z" fill="#999999" /></svg>